<svg width="36" height="36" viewBox="0 0 36 36" fill="none" xmlns="http://www.w3.org/2000/svg">
<path d="M31.7759 4.38672H28.0259V1.88674C28.0259 1.19636 27.4662 0.636719 26.7759 0.636719C26.0855 0.636719 25.5258 1.19636 25.5258 1.88674V4.38672H10.5258V1.88674C10.5258 1.19636 9.9662 0.636719 9.2759 0.636719C8.58559 0.636719 8.02587 1.19636 8.02587 1.88674V4.38672H4.27588C2.20481 4.38672 0.525879 6.06565 0.525879 8.13671V31.8867C0.525879 33.9578 2.20481 35.6367 4.27588 35.6367H31.7759C33.8469 35.6367 35.5259 33.9578 35.5259 31.8867V8.13671C35.5259 6.06565 33.8469 4.38672 31.7759 4.38672ZM33.0258 31.8867C33.0258 32.5771 32.4662 33.1367 31.7758 33.1367H4.27588C3.5855 33.1367 3.02585 32.5771 3.02585 31.8867V15.6367H33.0258V31.8867ZM3.02585 13.1367V8.13671C3.02585 7.44633 3.5855 6.88669 4.27588 6.88669H8.02587V9.38666C8.02587 10.077 8.58552 10.6367 9.2759 10.6367C9.96628 10.6367 10.5259 10.077 10.5259 9.38666V6.88669H25.5259V9.38666C25.5259 10.077 26.0856 10.6367 26.7759 10.6367C27.4663 10.6367 28.026 10.077 28.026 9.38666V6.88669H31.776C32.4663 6.88669 33.026 7.44633 33.026 8.13671V13.1367H3.02585Z" fill="#000B2B"/>
<path d="M26.3789 18.503C25.8945 18.0351 25.1265 18.0351 24.6422 18.503L15.5259 27.6192L11.4096 23.5029C10.913 23.0233 10.1217 23.0371 9.64211 23.5336C9.17424 24.018 9.17424 24.786 9.64211 25.2704L14.6421 30.2704C15.1303 30.7584 15.9215 30.7584 16.4096 30.2704L26.4096 20.2704C26.8892 19.7739 26.8754 18.9826 26.3789 18.503Z" fill="#000B2B"/>
</svg>
