<svg width="13" height="14" viewBox="0 0 13 14" fill="none" xmlns="http://www.w3.org/2000/svg">
<path d="M7.889 0.5H5.22233C2.649 0.5 0.555664 2.59333 0.555664 5.16667V7.16667C0.555664 8.975 1.59733 10.6133 3.22233 11.385V13.6133C3.22233 13.8067 3.464 13.9067 3.60066 13.77L5.53733 11.835H7.889C10.4623 11.835 12.5557 9.74167 12.5557 7.16667V5.16667C12.5557 2.59333 10.4623 0.5 7.889 0.5ZM9.63566 9.24683L8.96066 9.90683C8.25066 10.6018 6.39733 9.8085 4.764 8.14017C3.13066 6.47017 2.414 4.60017 3.089 3.90517L3.764 3.24517C4.01233 3.00183 4.434 3.00683 4.71233 3.25517L5.68566 4.25017C6.03233 4.60517 5.88566 5.20017 5.42733 5.33683C5.11066 5.4385 4.89566 5.78683 4.99733 6.1035C5.16566 6.8435 6.104 7.7685 6.804 7.95183C7.119 8.02517 7.47233 7.8535 7.58233 7.5385C7.72733 7.0835 8.32566 6.9485 8.674 7.30517L9.64566 8.2985C9.889 8.54667 9.88566 8.9685 9.63566 9.24683ZM7.16233 3.66667C7.09566 3.66667 7.029 3.67 6.964 3.67833C6.84233 3.69167 6.73233 3.60333 6.719 3.48167C6.70566 3.36 6.794 3.25 6.91566 3.23667C6.99733 3.22667 7.08066 3.22333 7.16233 3.22333C8.38733 3.22333 9.384 4.22 9.384 5.445C9.384 5.52667 9.38066 5.61 9.37066 5.69167C9.35733 5.81167 9.24566 5.90167 9.12566 5.88833C9.00566 5.875 8.91566 5.76333 8.929 5.64333C8.93566 5.57833 8.94066 5.51167 8.94066 5.445C8.94066 4.465 8.14233 3.66667 7.16233 3.66667ZM8.49566 5.445C8.49566 5.56667 8.394 5.66667 8.27233 5.66667C8.15233 5.66667 8.05066 5.56667 8.05066 5.445C8.05066 4.955 7.65233 4.55667 7.16233 4.55667C7.039 4.55667 6.939 4.45667 6.939 4.33333C6.939 4.21167 7.039 4.11167 7.16233 4.11167C7.89733 4.11167 8.49566 4.71 8.49566 5.445ZM10.1907 6.16333C10.1623 6.28333 10.034 6.35833 9.91566 6.32667C9.80066 6.295 9.73066 6.175 9.75733 6.06C9.80566 5.86 9.829 5.65333 9.829 5.445C9.829 3.975 8.63233 2.77833 7.16233 2.77833C7.094 2.77833 7.024 2.78 6.95566 2.78667C6.834 2.795 6.72733 2.70333 6.71733 2.58167C6.709 2.45833 6.80066 2.35167 6.92233 2.34333C7.00233 2.33667 7.08233 2.33333 7.16233 2.33333C8.87733 2.33333 10.274 3.73 10.274 5.445C10.274 5.68667 10.2457 5.92833 10.1907 6.16333Z" fill="#665CAC"/>
</svg>
