<svg width="15" height="15" viewBox="0 0 15 15" fill="none" xmlns="http://www.w3.org/2000/svg">
<path d="M0.849609 14.5L2.05361 10.8882C1.44268 9.86069 1.09099 8.66152 1.09099 7.37931C1.09099 3.58 4.17099 0.5 7.9703 0.5C11.7696 0.5 14.8496 3.58 14.8496 7.37931C14.8496 11.1786 11.7696 14.2586 7.9703 14.2586C6.81433 14.2586 5.72571 13.9721 4.76961 13.4686L0.849609 14.5Z" fill="#2CB742"/>
<path d="M12.3593 9.66879C12.0416 9.06848 10.8702 8.382 10.8702 8.382C10.6052 8.2309 10.2854 8.214 10.1343 8.48338C10.1343 8.48338 9.75361 8.93983 9.65682 9.00548C9.21461 9.30503 8.80499 9.29345 8.39151 8.87996L6.46964 6.9581C6.05616 6.54462 6.04457 6.135 6.34413 5.69279C6.40978 5.596 6.86623 5.21534 6.86623 5.21534C7.13561 5.064 7.11871 4.74441 6.96761 4.47938C6.96761 4.47938 6.28113 3.30797 5.68082 2.99031C5.42544 2.85514 5.11189 2.90245 4.90768 3.10666L4.48333 3.531C3.13716 4.87717 3.79999 6.3969 5.14616 7.74307L7.60678 10.2037C8.95295 11.5499 10.4727 12.2127 11.8189 10.8665L12.2432 10.4422C12.4474 10.2375 12.4945 9.92393 12.3593 9.66879Z" fill="white"/>
</svg>
