<svg width="21" height="21" viewBox="0 0 21 21" fill="none" xmlns="http://www.w3.org/2000/svg">
<path d="M18.3571 2.90262H16.2143V1.47406C16.2143 1.07956 15.8945 0.759766 15.5 0.759766C15.1055 0.759766 14.7857 1.07956 14.7857 1.47406V2.90262H6.21427V1.47406C6.21427 1.07956 5.89447 0.759766 5.50001 0.759766C5.10555 0.759766 4.78571 1.07956 4.78571 1.47406V2.90262H2.64286C1.45939 2.90262 0.5 3.86201 0.5 5.04548V18.6169C0.5 19.8004 1.45939 20.7598 2.64286 20.7598H18.3571C19.5406 20.7598 20.5 19.8004 20.5 18.6169V5.04548C20.5 3.86201 19.5406 2.90262 18.3571 2.90262ZM19.0714 18.6169C19.0714 19.0114 18.7516 19.3312 18.3571 19.3312H2.64286C2.24835 19.3312 1.92856 19.0114 1.92856 18.6169V9.33119H19.0714V18.6169ZM1.92856 7.90263V5.04548C1.92856 4.65097 2.24835 4.33118 2.64286 4.33118H4.78571V5.75973C4.78571 6.15424 5.10551 6.47403 5.50001 6.47403C5.89451 6.47403 6.21431 6.15424 6.21431 5.75973V4.33118H14.7857V5.75973C14.7857 6.15424 15.1055 6.47403 15.5 6.47403C15.8945 6.47403 16.2143 6.15424 16.2143 5.75973V4.33118H18.3572C18.7517 4.33118 19.0715 4.65097 19.0715 5.04548V7.90263H1.92856Z" fill="white"/>
<path d="M15.2731 10.9691C14.9963 10.7017 14.5575 10.7017 14.2807 10.9691L9.07142 16.1783L6.71926 13.8262C6.4355 13.5521 5.98333 13.56 5.70927 13.8437C5.44192 14.1205 5.44192 14.5593 5.70927 14.8362L8.56643 17.6933C8.84538 17.9721 9.29751 17.9721 9.57642 17.6933L15.2907 11.979C15.5647 11.6953 15.5569 11.2431 15.2731 10.9691Z" fill="white"/>
</svg>
