<svg width="26" height="15" viewBox="0 0 26 15" fill="none" xmlns="http://www.w3.org/2000/svg">
<path fill-rule="evenodd" clip-rule="evenodd" d="M22.1125 9.40184C22.9321 10.203 23.7971 10.9568 24.5321 11.8388C24.8568 12.2308 25.1642 12.6352 25.3993 13.0901C25.7325 13.7367 25.4307 14.4482 24.8517 14.4868L21.2525 14.4852C20.3242 14.5623 19.5837 14.1881 18.961 13.5526C18.4627 13.0443 18.0012 12.5034 17.522 11.978C17.3256 11.7632 17.12 11.5612 16.8744 11.4015C16.383 11.0821 15.9565 11.1799 15.6757 11.693C15.3898 12.2149 15.3249 12.7928 15.2968 13.3745C15.2583 14.2232 15.0021 14.4463 14.1507 14.4851C12.3313 14.571 10.6046 14.2954 9.00055 13.3764C7.58635 12.5661 6.4897 11.4223 5.53518 10.1274C3.67672 7.60599 2.25351 4.83534 0.974382 1.98705C0.686461 1.34533 0.897024 1.00086 1.60412 0.988667C2.7783 0.965827 3.9523 0.967453 5.12785 0.987042C5.60507 0.994032 5.921 1.26811 6.10526 1.71955C6.74052 3.28366 7.51784 4.77177 8.49354 6.15113C8.75338 6.51836 9.01832 6.88559 9.39562 7.14407C9.81301 7.43026 10.1308 7.33541 10.3272 6.86982C10.4518 6.57461 10.5063 6.25663 10.5344 5.94045C10.6274 4.85265 10.6397 3.76672 10.4765 2.68275C10.3764 2.00624 9.99581 1.56829 9.32167 1.44027C8.97766 1.375 9.02888 1.24682 9.19545 1.0502C9.48475 0.71109 9.75684 0.5 10.2992 0.5H14.3669C15.0073 0.626556 15.1495 0.914619 15.2372 1.55984L15.2407 6.08423C15.2337 6.33401 15.3653 7.07522 15.8146 7.24055C16.1742 7.35825 16.4112 7.07018 16.6269 6.84186C17.6009 5.80682 18.2959 4.58361 18.9169 3.31699C19.1925 2.76004 19.4294 2.18164 19.6591 1.60373C19.8292 1.17488 20.0962 0.963876 20.5786 0.973223L24.4935 0.976719C24.6096 0.976719 24.7271 0.978426 24.8395 0.99769C25.4992 1.11027 25.6799 1.39443 25.4762 2.03948C25.1552 3.05152 24.5305 3.8949 23.9198 4.74219C23.2669 5.64677 22.5687 6.52039 21.9212 7.43034C21.3264 8.26129 21.3736 8.68014 22.1125 9.40184Z" fill="#00AADF"/>
</svg>
